<?xml version="1.0" encoding="UTF-8" standalone="no"?>
<!DOCTYPE svg PUBLIC "-//W3C//DTD SVG 1.1//EN"
 "http://www.w3.org/Graphics/SVG/1.1/DTD/svg11.dtd">
<!-- Generated by graphviz version 2.40.1 (20161225.0304)
 -->
<!-- Title: G Pages: 1 -->
<svg width="1671pt" height="1581pt"
 viewBox="0.00 0.00 1671.00 1580.50" xmlns="http://www.w3.org/2000/svg" xmlns:xlink="http://www.w3.org/1999/xlink">
<g id="graph0" class="graph" transform="scale(1 1) rotate(0) translate(36 1544.5)">
<title>G</title>
<polygon fill="#f7f7f7" stroke="transparent" points="-36,36 -36,-1544.5 1635,-1544.5 1635,36 -36,36"/>
<!-- appcategory -->
<g id="node1" class="node">
<title>appcategory</title>
<polygon fill="none" stroke="#000000" points="194.5,-588.5 11.5,-588.5 11.5,-403.5 194.5,-403.5 194.5,-588.5"/>
<polygon fill="#d3d3d3" stroke="transparent" points="12,-551 12,-588 195,-588 195,-551 12,-551"/>
<polygon fill="none" stroke="#000000" points="12,-551 12,-588 195,-588 195,-551 12,-551"/>
<text text-anchor="start" x="70.5" y="-565.8" font-family="Helvetica Neue" font-size="14.00" fill="#333333">Category</text>
<polygon fill="#ffffff" stroke="transparent" points="12,-514 12,-551 195,-551 195,-514 12,-514"/>
<polygon fill="none" stroke="#000000" points="12,-514 12,-551 195,-551 195,-514 12,-514"/>
<text text-anchor="start" x="23" y="-528.8" font-family="Helvetica Neue" font-size="14.00" fill="#333333">id (bigint)</text>
<polygon fill="#ffffff" stroke="transparent" points="12,-477 12,-514 195,-514 195,-477 12,-477"/>
<polygon fill="none" stroke="#000000" points="12,-477 12,-514 195,-514 195,-477 12,-477"/>
<text text-anchor="start" x="23" y="-491.8" font-family="Helvetica Neue" font-size="14.00" fill="#333333">name (string)</text>
<polygon fill="#ffffff" stroke="transparent" points="12,-440 12,-477 195,-477 195,-440 12,-440"/>
<polygon fill="none" stroke="#000000" points="12,-440 12,-477 195,-477 195,-440 12,-440"/>
<text text-anchor="start" x="23" y="-454.8" font-family="Helvetica Neue" font-size="14.00" fill="#333333">created_at (datetime)</text>
<polygon fill="#ffffff" stroke="transparent" points="12,-403 12,-440 195,-440 195,-403 12,-403"/>
<polygon fill="none" stroke="#000000" points="12,-403 12,-440 195,-440 195,-403 12,-403"/>
<text text-anchor="start" x="23" y="-417.8" font-family="Helvetica Neue" font-size="14.00" fill="#333333">updated_at (datetime)</text>
</g>
<!-- category_video -->
<g id="node2" class="node">
<title>category_video</title>
<polygon fill="none" stroke="#000000" points="538,-663 355,-663 355,-441 538,-441 538,-663"/>
<polygon fill="#d3d3d3" stroke="transparent" points="355.5,-626 355.5,-663 538.5,-663 538.5,-626 355.5,-626"/>
<polygon fill="none" stroke="#000000" points="355.5,-626 355.5,-663 538.5,-663 538.5,-626 355.5,-626"/>
<text text-anchor="start" x="429.5" y="-640.8" font-family="Helvetica Neue" font-size="14.00" fill="#333333">Pivot</text>
<polygon fill="#ffffff" stroke="transparent" points="355.5,-589 355.5,-626 538.5,-626 538.5,-589 355.5,-589"/>
<polygon fill="none" stroke="#000000" points="355.5,-589 355.5,-626 538.5,-626 538.5,-589 355.5,-589"/>
<text text-anchor="start" x="366.5" y="-603.8" font-family="Helvetica Neue" font-size="14.00" fill="#333333">id (bigint)</text>
<polygon fill="#ffffff" stroke="transparent" points="355.5,-552 355.5,-589 538.5,-589 538.5,-552 355.5,-552"/>
<polygon fill="none" stroke="#000000" points="355.5,-552 355.5,-589 538.5,-589 538.5,-552 355.5,-552"/>
<text text-anchor="start" x="366.5" y="-566.8" font-family="Helvetica Neue" font-size="14.00" fill="#333333">video_id (integer)</text>
<polygon fill="#ffffff" stroke="transparent" points="355.5,-515 355.5,-552 538.5,-552 538.5,-515 355.5,-515"/>
<polygon fill="none" stroke="#000000" points="355.5,-515 355.5,-552 538.5,-552 538.5,-515 355.5,-515"/>
<text text-anchor="start" x="366.5" y="-529.8" font-family="Helvetica Neue" font-size="14.00" fill="#333333">category_id (integer)</text>
<polygon fill="#ffffff" stroke="transparent" points="355.5,-478 355.5,-515 538.5,-515 538.5,-478 355.5,-478"/>
<polygon fill="none" stroke="#000000" points="355.5,-478 355.5,-515 538.5,-515 538.5,-478 355.5,-478"/>
<text text-anchor="start" x="366.5" y="-492.8" font-family="Helvetica Neue" font-size="14.00" fill="#333333">created_at (datetime)</text>
<polygon fill="#ffffff" stroke="transparent" points="355.5,-441 355.5,-478 538.5,-478 538.5,-441 355.5,-441"/>
<polygon fill="none" stroke="#000000" points="355.5,-441 355.5,-478 538.5,-478 538.5,-441 355.5,-441"/>
<text text-anchor="start" x="366.5" y="-455.8" font-family="Helvetica Neue" font-size="14.00" fill="#333333">updated_at (datetime)</text>
</g>
<!-- appcategory&#45;&gt;category_video -->
<g id="edge1" class="edge">
<title>appcategory:id&#45;&gt;category_video:category_id</title>
<path fill="none" stroke="#003049" stroke-width="1.8" d="M195,-533C195,-533 310.3226,-533 345.46,-533"/>
<polygon fill="#003049" stroke="#003049" stroke-width="1.8" points="345.5,-536.5001 355.5,-533 345.5,-529.5001 345.5,-536.5001"/>
<text text-anchor="middle" x="280.5" y="-536.8" font-family="Helvetica Neue" font-size="14.00" fill="#000000"> </text>
<text text-anchor="middle" x="326.23" y="-521.8" font-family="Helvetica Neue" font-size="14.00" fill="#000000">BelongsToMany</text>
<text text-anchor="middle" x="326.23" y="-506.8" font-family="Helvetica Neue" font-size="14.00" fill="#000000">videos</text>
</g>
<!-- category_video&#45;&gt;appcategory -->
<g id="edge12" class="edge">
<title>category_video:category_id&#45;&gt;appcategory:id</title>
<path fill="none" stroke="#003049" stroke-width="1.8" d="M355.5,-533C355.5,-533 283,-500 283,-500 283,-500 278,-500 278,-500 278,-500 226.3226,-520.5464 204.5212,-529.2145"/>
<polygon fill="#003049" stroke="#003049" stroke-width="1.8" points="202.9993,-526.053 195,-533 205.5856,-532.5577 202.9993,-526.053"/>
<text text-anchor="middle" x="280.5" y="-503.8" font-family="Helvetica Neue" font-size="14.00" fill="#000000"> </text>
<text text-anchor="middle" x="224.7918" y="-488.8" font-family="Helvetica Neue" font-size="14.00" fill="#000000">BelongsToMany</text>
<text text-anchor="middle" x="224.7918" y="-473.8" font-family="Helvetica Neue" font-size="14.00" fill="#000000">categories</text>
</g>
<!-- appvideo -->
<g id="node3" class="node">
<title>appvideo</title>
<polygon fill="none" stroke="#000000" points="870,-626 687,-626 687,-256 870,-256 870,-626"/>
<polygon fill="#d3d3d3" stroke="transparent" points="687.5,-589 687.5,-626 870.5,-626 870.5,-589 687.5,-589"/>
<polygon fill="none" stroke="#000000" points="687.5,-589 687.5,-626 870.5,-626 870.5,-589 687.5,-589"/>
<text text-anchor="start" x="758.5" y="-603.8" font-family="Helvetica Neue" font-size="14.00" fill="#333333">Video</text>
<polygon fill="#ffffff" stroke="transparent" points="687.5,-552 687.5,-589 870.5,-589 870.5,-552 687.5,-552"/>
<polygon fill="none" stroke="#000000" points="687.5,-552 687.5,-589 870.5,-589 870.5,-552 687.5,-552"/>
<text text-anchor="start" x="698.5" y="-566.8" font-family="Helvetica Neue" font-size="14.00" fill="#333333">id (bigint)</text>
<polygon fill="#ffffff" stroke="transparent" points="687.5,-515 687.5,-552 870.5,-552 870.5,-515 687.5,-515"/>
<polygon fill="none" stroke="#000000" points="687.5,-515 687.5,-552 870.5,-552 870.5,-515 687.5,-515"/>
<text text-anchor="start" x="698.5" y="-529.8" font-family="Helvetica Neue" font-size="14.00" fill="#333333">created_at (datetime)</text>
<polygon fill="#ffffff" stroke="transparent" points="687.5,-478 687.5,-515 870.5,-515 870.5,-478 687.5,-478"/>
<polygon fill="none" stroke="#000000" points="687.5,-478 687.5,-515 870.5,-515 870.5,-478 687.5,-478"/>
<text text-anchor="start" x="698.5" y="-492.8" font-family="Helvetica Neue" font-size="14.00" fill="#333333">updated_at (datetime)</text>
<polygon fill="#ffffff" stroke="transparent" points="687.5,-441 687.5,-478 870.5,-478 870.5,-441 687.5,-441"/>
<polygon fill="none" stroke="#000000" points="687.5,-441 687.5,-478 870.5,-478 870.5,-441 687.5,-441"/>
<text text-anchor="start" x="698.5" y="-455.8" font-family="Helvetica Neue" font-size="14.00" fill="#333333">price (integer)</text>
<polygon fill="#ffffff" stroke="transparent" points="687.5,-404 687.5,-441 870.5,-441 870.5,-404 687.5,-404"/>
<polygon fill="none" stroke="#000000" points="687.5,-404 687.5,-441 870.5,-441 870.5,-404 687.5,-404"/>
<text text-anchor="start" x="698.5" y="-418.8" font-family="Helvetica Neue" font-size="14.00" fill="#333333">name (string)</text>
<polygon fill="#ffffff" stroke="transparent" points="687.5,-367 687.5,-404 870.5,-404 870.5,-367 687.5,-367"/>
<polygon fill="none" stroke="#000000" points="687.5,-367 687.5,-404 870.5,-404 870.5,-367 687.5,-367"/>
<text text-anchor="start" x="698.5" y="-381.8" font-family="Helvetica Neue" font-size="14.00" fill="#333333">videoFile (string)</text>
<polygon fill="#ffffff" stroke="transparent" points="687.5,-330 687.5,-367 870.5,-367 870.5,-330 687.5,-330"/>
<polygon fill="none" stroke="#000000" points="687.5,-330 687.5,-367 870.5,-367 870.5,-330 687.5,-330"/>
<text text-anchor="start" x="698.5" y="-344.8" font-family="Helvetica Neue" font-size="14.00" fill="#333333">imageFile (string)</text>
<polygon fill="#ffffff" stroke="transparent" points="687.5,-293 687.5,-330 870.5,-330 870.5,-293 687.5,-293"/>
<polygon fill="none" stroke="#000000" points="687.5,-293 687.5,-330 870.5,-330 870.5,-293 687.5,-293"/>
<text text-anchor="start" x="698.5" y="-307.8" font-family="Helvetica Neue" font-size="14.00" fill="#333333">description (text)</text>
<polygon fill="#ffffff" stroke="transparent" points="687.5,-256 687.5,-293 870.5,-293 870.5,-256 687.5,-256"/>
<polygon fill="none" stroke="#000000" points="687.5,-256 687.5,-293 870.5,-293 870.5,-256 687.5,-256"/>
<text text-anchor="start" x="698.5" y="-270.8" font-family="Helvetica Neue" font-size="14.00" fill="#333333">user_id (bigint)</text>
</g>
<!-- category_video&#45;&gt;appvideo -->
<g id="edge2" class="edge">
<title>category_video:video_id&#45;&gt;appvideo:id</title>
<path fill="none" stroke="#003049" stroke-width="1.8" d="M538,-571C538,-571 643.448,-571 677.2243,-571"/>
<polygon fill="#003049" stroke="#003049" stroke-width="1.8" points="677.5,-574.5001 687.5,-571 677.5,-567.5001 677.5,-574.5001"/>
<text text-anchor="middle" x="612.5" y="-574.8" font-family="Helvetica Neue" font-size="14.00" fill="#000000"> </text>
<text text-anchor="middle" x="663.6121" y="-559.8" font-family="Helvetica Neue" font-size="14.00" fill="#000000">BelongsToMany</text>
<text text-anchor="middle" x="663.6121" y="-544.8" font-family="Helvetica Neue" font-size="14.00" fill="#000000">videos</text>
</g>
<!-- appvideo&#45;&gt;category_video -->
<g id="edge11" class="edge">
<title>appvideo:id&#45;&gt;category_video:video_id</title>
<path fill="none" stroke="#003049" stroke-width="1.8" d="M687.5,-571C687.5,-571 615,-538 615,-538 615,-538 610,-538 610,-538 610,-538 566.493,-557.9407 547.1188,-566.8205"/>
<polygon fill="#003049" stroke="#003049" stroke-width="1.8" points="545.6323,-563.6517 538,-571 548.549,-570.0151 545.6323,-563.6517"/>
<text text-anchor="middle" x="612.5" y="-541.8" font-family="Helvetica Neue" font-size="14.00" fill="#000000"> </text>
<text text-anchor="middle" x="673.4965" y="-527.9363" font-family="Helvetica Neue" font-size="14.00" fill="#000000">BelongsToMany</text>
<text text-anchor="middle" x="673.4965" y="-512.9363" font-family="Helvetica Neue" font-size="14.00" fill="#000000">categories</text>
</g>
<!-- appuser -->
<g id="node4" class="node">
<title>appuser</title>
<polygon fill="none" stroke="#000000" points="1244,-421 1019,-421 1019,-51 1244,-51 1244,-421"/>
<polygon fill="#d3d3d3" stroke="transparent" points="1019.5,-384 1019.5,-421 1244.5,-421 1244.5,-384 1019.5,-384"/>
<polygon fill="none" stroke="#000000" points="1019.5,-384 1019.5,-421 1244.5,-421 1244.5,-384 1019.5,-384"/>
<text text-anchor="start" x="1115" y="-398.8" font-family="Helvetica Neue" font-size="14.00" fill="#333333">User</text>
<polygon fill="#ffffff" stroke="transparent" points="1019.5,-347 1019.5,-384 1244.5,-384 1244.5,-347 1019.5,-347"/>
<polygon fill="none" stroke="#000000" points="1019.5,-347 1019.5,-384 1244.5,-384 1244.5,-347 1019.5,-347"/>
<text text-anchor="start" x="1030.5" y="-361.8" font-family="Helvetica Neue" font-size="14.00" fill="#333333">id (bigint)</text>
<polygon fill="#ffffff" stroke="transparent" points="1019.5,-310 1019.5,-347 1244.5,-347 1244.5,-310 1019.5,-310"/>
<polygon fill="none" stroke="#000000" points="1019.5,-310 1019.5,-347 1244.5,-347 1244.5,-310 1019.5,-310"/>
<text text-anchor="start" x="1030.5" y="-324.8" font-family="Helvetica Neue" font-size="14.00" fill="#333333">name (string)</text>
<polygon fill="#ffffff" stroke="transparent" points="1019.5,-273 1019.5,-310 1244.5,-310 1244.5,-273 1019.5,-273"/>
<polygon fill="none" stroke="#000000" points="1019.5,-273 1019.5,-310 1244.5,-310 1244.5,-273 1019.5,-273"/>
<text text-anchor="start" x="1030.5" y="-287.8" font-family="Helvetica Neue" font-size="14.00" fill="#333333">email (string)</text>
<polygon fill="#ffffff" stroke="transparent" points="1019.5,-236 1019.5,-273 1244.5,-273 1244.5,-236 1019.5,-236"/>
<polygon fill="none" stroke="#000000" points="1019.5,-236 1019.5,-273 1244.5,-273 1244.5,-236 1019.5,-236"/>
<text text-anchor="start" x="1030.5" y="-250.8" font-family="Helvetica Neue" font-size="14.00" fill="#333333">email_verified_at (datetime)</text>
<polygon fill="#ffffff" stroke="transparent" points="1019.5,-199 1019.5,-236 1244.5,-236 1244.5,-199 1019.5,-199"/>
<polygon fill="none" stroke="#000000" points="1019.5,-199 1019.5,-236 1244.5,-236 1244.5,-199 1019.5,-199"/>
<text text-anchor="start" x="1030.5" y="-213.8" font-family="Helvetica Neue" font-size="14.00" fill="#333333">is_admin (boolean)</text>
<polygon fill="#ffffff" stroke="transparent" points="1019.5,-162 1019.5,-199 1244.5,-199 1244.5,-162 1019.5,-162"/>
<polygon fill="none" stroke="#000000" points="1019.5,-162 1019.5,-199 1244.5,-199 1244.5,-162 1019.5,-162"/>
<text text-anchor="start" x="1030.5" y="-176.8" font-family="Helvetica Neue" font-size="14.00" fill="#333333">password (string)</text>
<polygon fill="#ffffff" stroke="transparent" points="1019.5,-125 1019.5,-162 1244.5,-162 1244.5,-125 1019.5,-125"/>
<polygon fill="none" stroke="#000000" points="1019.5,-125 1019.5,-162 1244.5,-162 1244.5,-125 1019.5,-125"/>
<text text-anchor="start" x="1030.5" y="-139.8" font-family="Helvetica Neue" font-size="14.00" fill="#333333">remember_token (string)</text>
<polygon fill="#ffffff" stroke="transparent" points="1019.5,-88 1019.5,-125 1244.5,-125 1244.5,-88 1019.5,-88"/>
<polygon fill="none" stroke="#000000" points="1019.5,-88 1019.5,-125 1244.5,-125 1244.5,-88 1019.5,-88"/>
<text text-anchor="start" x="1030.5" y="-102.8" font-family="Helvetica Neue" font-size="14.00" fill="#333333">created_at (datetime)</text>
<polygon fill="#ffffff" stroke="transparent" points="1019.5,-51 1019.5,-88 1244.5,-88 1244.5,-51 1019.5,-51"/>
<polygon fill="none" stroke="#000000" points="1019.5,-51 1019.5,-88 1244.5,-88 1244.5,-51 1019.5,-51"/>
<text text-anchor="start" x="1030.5" y="-65.8" font-family="Helvetica Neue" font-size="14.00" fill="#333333">updated_at (datetime)</text>
</g>
<!-- appvideo&#45;&gt;appuser -->
<g id="edge10" class="edge">
<title>appvideo:user_id&#45;&gt;appuser:id</title>
<path fill="none" stroke="#f77f00" stroke-width="1.8" d="M880.0664,-275.6995C900.9382,-279.2233 947,-287 947,-287 947,-287 1001.521,-346.4091 1016.0032,-362.1897"/>
<polygon fill="#f77f00" stroke="#f77f00" stroke-width="1.8" points="879.8605,-275.6648 870.7492,-269.5628 874.9302,-274.8324 870,-274 870,-274 870,-274 874.9302,-274.8324 869.2508,-278.4372 879.8605,-275.6648 879.8605,-275.6648"/>
<polygon fill="#f77f00" stroke="#f77f00" stroke-width="1.8" points="1022.5077,-361.8825 1015.14,-368.644 1013.7877,-367.1704 1021.1554,-360.4089 1022.5077,-361.8825"/>
<polyline fill="none" stroke="#f77f00" stroke-width="1.8" points="1019.5,-366 1016.1192,-362.3161 "/>
<text text-anchor="middle" x="944.5" y="-290.8" font-family="Helvetica Neue" font-size="14.00" fill="#000000"> </text>
<text text-anchor="middle" x="922.0529" y="-288.3887" font-family="Helvetica Neue" font-size="14.00" fill="#000000">BelongsTo</text>
<text text-anchor="middle" x="922.0529" y="-273.3887" font-family="Helvetica Neue" font-size="14.00" fill="#000000">user</text>
</g>
<!-- appuser&#45;&gt;appvideo -->
<g id="edge3" class="edge">
<title>appuser:id&#45;&gt;appvideo:user_id</title>
<path fill="none" stroke="#fcbf49" stroke-width="1.8" d="M1019.5,-366C1019.5,-366 911.0888,-299.2854 878.9042,-279.4795"/>
<polygon fill="#fcbf49" stroke="#fcbf49" stroke-width="1.8" points="878.5166,-279.241 872.3585,-270.1675 874.2583,-276.6205 870,-274 870,-274 870,-274 874.2583,-276.6205 867.6415,-277.8325 878.5166,-279.241 878.5166,-279.241"/>
<text text-anchor="middle" x="944.5" y="-323.8" font-family="Helvetica Neue" font-size="14.00" fill="#000000"> </text>
<text text-anchor="middle" x="982.2021" y="-341.5398" font-family="Helvetica Neue" font-size="14.00" fill="#000000">HasMany</text>
<text text-anchor="middle" x="982.2021" y="-326.5398" font-family="Helvetica Neue" font-size="14.00" fill="#000000">videos</text>
</g>
<!-- favorites -->
<g id="node5" class="node">
<title>favorites</title>
<polygon fill="none" stroke="#000000" points="1587.5,-998 1404.5,-998 1404.5,-776 1587.5,-776 1587.5,-998"/>
<polygon fill="#d3d3d3" stroke="transparent" points="1405,-961 1405,-998 1588,-998 1588,-961 1405,-961"/>
<polygon fill="none" stroke="#000000" points="1405,-961 1405,-998 1588,-998 1588,-961 1405,-961"/>
<text text-anchor="start" x="1479" y="-975.8" font-family="Helvetica Neue" font-size="14.00" fill="#333333">Pivot</text>
<polygon fill="#ffffff" stroke="transparent" points="1405,-924 1405,-961 1588,-961 1588,-924 1405,-924"/>
<polygon fill="none" stroke="#000000" points="1405,-924 1405,-961 1588,-961 1588,-924 1405,-924"/>
<text text-anchor="start" x="1416" y="-938.8" font-family="Helvetica Neue" font-size="14.00" fill="#333333">id (integer)</text>
<polygon fill="#ffffff" stroke="transparent" points="1405,-887 1405,-924 1588,-924 1588,-887 1405,-887"/>
<polygon fill="none" stroke="#000000" points="1405,-887 1405,-924 1588,-924 1588,-887 1405,-887"/>
<text text-anchor="start" x="1416" y="-901.8" font-family="Helvetica Neue" font-size="14.00" fill="#333333">created_at (datetime)</text>
<polygon fill="#ffffff" stroke="transparent" points="1405,-850 1405,-887 1588,-887 1588,-850 1405,-850"/>
<polygon fill="none" stroke="#000000" points="1405,-850 1405,-887 1588,-887 1588,-850 1405,-850"/>
<text text-anchor="start" x="1416" y="-864.8" font-family="Helvetica Neue" font-size="14.00" fill="#333333">updated_at (datetime)</text>
<polygon fill="#ffffff" stroke="transparent" points="1405,-813 1405,-850 1588,-850 1588,-813 1405,-813"/>
<polygon fill="none" stroke="#000000" points="1405,-813 1405,-850 1588,-850 1588,-813 1405,-813"/>
<text text-anchor="start" x="1416" y="-827.8" font-family="Helvetica Neue" font-size="14.00" fill="#333333">user_id (integer)</text>
<polygon fill="#ffffff" stroke="transparent" points="1405,-776 1405,-813 1588,-813 1588,-776 1405,-776"/>
<polygon fill="none" stroke="#000000" points="1405,-776 1405,-813 1588,-813 1588,-776 1405,-776"/>
<text text-anchor="start" x="1416" y="-790.8" font-family="Helvetica Neue" font-size="14.00" fill="#333333">video_id (integer)</text>
</g>
<!-- appuser&#45;&gt;favorites -->
<g id="edge4" class="edge">
<title>appuser:id&#45;&gt;favorites:user_id</title>
<path fill="none" stroke="#003049" stroke-width="1.8" d="M1244,-366C1244,-366 1378.5172,-754.5123 1401.6373,-821.2878"/>
<polygon fill="#003049" stroke="#003049" stroke-width="1.8" points="1398.4208,-822.6955 1405,-831 1405.0355,-820.4052 1398.4208,-822.6955"/>
<text text-anchor="middle" x="1318.5" y="-587.8" font-family="Helvetica Neue" font-size="14.00" fill="#000000"> </text>
<text text-anchor="middle" x="1266.8186" y="-612.4439" font-family="Helvetica Neue" font-size="14.00" fill="#000000">BelongsToMany</text>
<text text-anchor="middle" x="1266.8186" y="-597.4439" font-family="Helvetica Neue" font-size="14.00" fill="#000000">favorites</text>
</g>
<!-- carts -->
<g id="node6" class="node">
<title>carts</title>
<polygon fill="none" stroke="#000000" points="1587.5,-690 1404.5,-690 1404.5,-468 1587.5,-468 1587.5,-690"/>
<polygon fill="#d3d3d3" stroke="transparent" points="1405,-653 1405,-690 1588,-690 1588,-653 1405,-653"/>
<polygon fill="none" stroke="#000000" points="1405,-653 1405,-690 1588,-690 1588,-653 1405,-653"/>
<text text-anchor="start" x="1479" y="-667.8" font-family="Helvetica Neue" font-size="14.00" fill="#333333">Pivot</text>
<polygon fill="#ffffff" stroke="transparent" points="1405,-616 1405,-653 1588,-653 1588,-616 1405,-616"/>
<polygon fill="none" stroke="#000000" points="1405,-616 1405,-653 1588,-653 1588,-616 1405,-616"/>
<text text-anchor="start" x="1416" y="-630.8" font-family="Helvetica Neue" font-size="14.00" fill="#333333">id (bigint)</text>
<polygon fill="#ffffff" stroke="transparent" points="1405,-579 1405,-616 1588,-616 1588,-579 1405,-579"/>
<polygon fill="none" stroke="#000000" points="1405,-579 1405,-616 1588,-616 1588,-579 1405,-579"/>
<text text-anchor="start" x="1416" y="-593.8" font-family="Helvetica Neue" font-size="14.00" fill="#333333">user_id (integer)</text>
<polygon fill="#ffffff" stroke="transparent" points="1405,-542 1405,-579 1588,-579 1588,-542 1405,-542"/>
<polygon fill="none" stroke="#000000" points="1405,-542 1405,-579 1588,-579 1588,-542 1405,-542"/>
<text text-anchor="start" x="1416" y="-556.8" font-family="Helvetica Neue" font-size="14.00" fill="#333333">video_id (integer)</text>
<polygon fill="#ffffff" stroke="transparent" points="1405,-505 1405,-542 1588,-542 1588,-505 1405,-505"/>
<polygon fill="none" stroke="#000000" points="1405,-505 1405,-542 1588,-542 1588,-505 1405,-505"/>
<text text-anchor="start" x="1416" y="-519.8" font-family="Helvetica Neue" font-size="14.00" fill="#333333">created_at (datetime)</text>
<polygon fill="#ffffff" stroke="transparent" points="1405,-468 1405,-505 1588,-505 1588,-468 1405,-468"/>
<polygon fill="none" stroke="#000000" points="1405,-468 1405,-505 1588,-505 1588,-468 1405,-468"/>
<text text-anchor="start" x="1416" y="-482.8" font-family="Helvetica Neue" font-size="14.00" fill="#333333">updated_at (datetime)</text>
</g>
<!-- appuser&#45;&gt;carts -->
<g id="edge6" class="edge">
<title>appuser:id&#45;&gt;carts:user_id</title>
<path fill="none" stroke="#003049" stroke-width="1.8" d="M1244,-366C1244,-366 1370.5895,-548.4147 1399.2699,-589.743"/>
<polygon fill="#003049" stroke="#003049" stroke-width="1.8" points="1396.4232,-591.7799 1405,-598 1402.1741,-587.789 1396.4232,-591.7799"/>
<text text-anchor="middle" x="1318.5" y="-478.8" font-family="Helvetica Neue" font-size="14.00" fill="#000000"> </text>
<text text-anchor="middle" x="1265.635" y="-466.6715" font-family="Helvetica Neue" font-size="14.00" fill="#000000">BelongsToMany</text>
<text text-anchor="middle" x="1265.635" y="-451.6715" font-family="Helvetica Neue" font-size="14.00" fill="#000000">carts</text>
</g>
<!-- purchases -->
<g id="node7" class="node">
<title>purchases</title>
<polygon fill="none" stroke="#000000" points="1599,-267.5 1393,-267.5 1393,-8.5 1599,-8.5 1599,-267.5"/>
<polygon fill="#d3d3d3" stroke="transparent" points="1393,-230 1393,-267 1599,-267 1599,-230 1393,-230"/>
<polygon fill="none" stroke="#000000" points="1393,-230 1393,-267 1599,-267 1599,-230 1393,-230"/>
<text text-anchor="start" x="1478.5" y="-244.8" font-family="Helvetica Neue" font-size="14.00" fill="#333333">Pivot</text>
<polygon fill="#ffffff" stroke="transparent" points="1393,-193 1393,-230 1599,-230 1599,-193 1393,-193"/>
<polygon fill="none" stroke="#000000" points="1393,-193 1393,-230 1599,-230 1599,-193 1393,-193"/>
<text text-anchor="start" x="1404" y="-207.8" font-family="Helvetica Neue" font-size="14.00" fill="#333333">id (bigint)</text>
<polygon fill="#ffffff" stroke="transparent" points="1393,-156 1393,-193 1599,-193 1599,-156 1393,-156"/>
<polygon fill="none" stroke="#000000" points="1393,-156 1393,-193 1599,-193 1599,-156 1393,-156"/>
<text text-anchor="start" x="1404" y="-170.8" font-family="Helvetica Neue" font-size="14.00" fill="#333333">user_id (integer)</text>
<polygon fill="#ffffff" stroke="transparent" points="1393,-119 1393,-156 1599,-156 1599,-119 1393,-119"/>
<polygon fill="none" stroke="#000000" points="1393,-119 1393,-156 1599,-156 1599,-119 1393,-119"/>
<text text-anchor="start" x="1404" y="-133.8" font-family="Helvetica Neue" font-size="14.00" fill="#333333">video_id (integer)</text>
<polygon fill="#ffffff" stroke="transparent" points="1393,-82 1393,-119 1599,-119 1599,-82 1393,-82"/>
<polygon fill="none" stroke="#000000" points="1393,-82 1393,-119 1599,-119 1599,-82 1393,-82"/>
<text text-anchor="start" x="1404" y="-96.8" font-family="Helvetica Neue" font-size="14.00" fill="#333333">download_count (integer)</text>
<polygon fill="#ffffff" stroke="transparent" points="1393,-45 1393,-82 1599,-82 1599,-45 1393,-45"/>
<polygon fill="none" stroke="#000000" points="1393,-45 1393,-82 1599,-82 1599,-45 1393,-45"/>
<text text-anchor="start" x="1404" y="-59.8" font-family="Helvetica Neue" font-size="14.00" fill="#333333">created_at (datetime)</text>
<polygon fill="#ffffff" stroke="transparent" points="1393,-8 1393,-45 1599,-45 1599,-8 1393,-8"/>
<polygon fill="none" stroke="#000000" points="1393,-8 1393,-45 1599,-45 1599,-8 1393,-8"/>
<text text-anchor="start" x="1404" y="-22.8" font-family="Helvetica Neue" font-size="14.00" fill="#333333">updated_at (datetime)</text>
</g>
<!-- appuser&#45;&gt;purchases -->
<g id="edge8" class="edge">
<title>appuser:id&#45;&gt;purchases:user_id</title>
<path fill="none" stroke="#003049" stroke-width="1.8" d="M1244,-366C1244,-366 1358.0781,-219.7656 1386.5977,-183.207"/>
<polygon fill="#003049" stroke="#003049" stroke-width="1.8" points="1389.6088,-185.0374 1393,-175 1384.0895,-180.7318 1389.6088,-185.0374"/>
<text text-anchor="middle" x="1318.5" y="-274.8" font-family="Helvetica Neue" font-size="14.00" fill="#000000"> </text>
<text text-anchor="middle" x="1371.2988" y="-293.4035" font-family="Helvetica Neue" font-size="14.00" fill="#000000">BelongsToMany</text>
<text text-anchor="middle" x="1371.2988" y="-278.4035" font-family="Helvetica Neue" font-size="14.00" fill="#000000">purchases</text>
</g>
<!-- favorites&#45;&gt;appvideo -->
<g id="edge5" class="edge">
<title>favorites:video_id&#45;&gt;appvideo:id</title>
<path fill="none" stroke="#003049" stroke-width="1.8" d="M1405,-794C1405,-794 1018.6015,-601.8496 953.6987,-569.5744"/>
<polygon fill="#003049" stroke="#003049" stroke-width="1.8" points="955.0124,-566.3188 944.5,-565 951.8955,-572.5866 955.0124,-566.3188"/>
<text text-anchor="middle" x="1131.5" y="-716.8" font-family="Helvetica Neue" font-size="14.00" fill="#000000"> </text>
<text text-anchor="middle" x="1123.3493" y="-670.5872" font-family="Helvetica Neue" font-size="14.00" fill="#000000">BelongsToMany</text>
<text text-anchor="middle" x="1123.3493" y="-655.5872" font-family="Helvetica Neue" font-size="14.00" fill="#000000">favorites</text>
</g>
<!-- carts&#45;&gt;appvideo -->
<g id="edge7" class="edge">
<title>carts:video_id&#45;&gt;appvideo:id</title>
<path fill="none" stroke="#003049" stroke-width="1.8" d="M1405,-560C1405,-560 1021.89,-564.1597 954.5465,-564.8909"/>
<polygon fill="#003049" stroke="#003049" stroke-width="1.8" points="954.4614,-561.3915 944.5,-565 954.5374,-568.3911 954.4614,-561.3915"/>
<text text-anchor="middle" x="1131.5" y="-567.8" font-family="Helvetica Neue" font-size="14.00" fill="#000000"> </text>
<text text-anchor="middle" x="1123.7732" y="-551.2455" font-family="Helvetica Neue" font-size="14.00" fill="#000000">BelongsToMany</text>
<text text-anchor="middle" x="1123.7732" y="-536.2455" font-family="Helvetica Neue" font-size="14.00" fill="#000000">carts</text>
</g>
<!-- purchases&#45;&gt;appvideo -->
<g id="edge9" class="edge">
<title>purchases:video_id&#45;&gt;appvideo:id</title>
<path fill="none" stroke="#003049" stroke-width="1.8" d="M944.5,-565C944.5,-565 870,-571 870,-571"/>
<path fill="none" stroke="#003049" stroke-width="1.8" d="M1393,-137C1393,-137 1244,0 1244,0 1244,0 1019,0 1019,0 1019,0 955.9539,-478.1348 945.8567,-554.7111"/>
<polygon fill="#003049" stroke="#003049" stroke-width="1.8" points="942.3374,-554.6282 944.5,-565 949.2773,-555.5434 942.3374,-554.6282"/>
<text text-anchor="middle" x="1131.5" y="-3.8" font-family="Helvetica Neue" font-size="14.00" fill="#000000"> </text>
<text text-anchor="middle" x="1000.5" y="-553.8" font-family="Helvetica Neue" font-size="14.00" fill="#000000">BelongsToMany</text>
<text text-anchor="middle" x="1000.5" y="-538.8" font-family="Helvetica Neue" font-size="14.00" fill="#000000">purchases</text>
</g>
<!-- appcart -->
<g id="node8" class="node">
<title>appcart</title>
<polygon fill="none" stroke="#000000" points="194.5,-883 11.5,-883 11.5,-661 194.5,-661 194.5,-883"/>
<polygon fill="#d3d3d3" stroke="transparent" points="12,-846 12,-883 195,-883 195,-846 12,-846"/>
<polygon fill="none" stroke="#000000" points="12,-846 12,-883 195,-883 195,-846 12,-846"/>
<text text-anchor="start" x="88" y="-860.8" font-family="Helvetica Neue" font-size="14.00" fill="#333333">Cart</text>
<polygon fill="#ffffff" stroke="transparent" points="12,-809 12,-846 195,-846 195,-809 12,-809"/>
<polygon fill="none" stroke="#000000" points="12,-809 12,-846 195,-846 195,-809 12,-809"/>
<text text-anchor="start" x="23" y="-823.8" font-family="Helvetica Neue" font-size="14.00" fill="#333333">id (bigint)</text>
<polygon fill="#ffffff" stroke="transparent" points="12,-772 12,-809 195,-809 195,-772 12,-772"/>
<polygon fill="none" stroke="#000000" points="12,-772 12,-809 195,-809 195,-772 12,-772"/>
<text text-anchor="start" x="23" y="-786.8" font-family="Helvetica Neue" font-size="14.00" fill="#333333">user_id (integer)</text>
<polygon fill="#ffffff" stroke="transparent" points="12,-735 12,-772 195,-772 195,-735 12,-735"/>
<polygon fill="none" stroke="#000000" points="12,-735 12,-772 195,-772 195,-735 12,-735"/>
<text text-anchor="start" x="23" y="-749.8" font-family="Helvetica Neue" font-size="14.00" fill="#333333">video_id (integer)</text>
<polygon fill="#ffffff" stroke="transparent" points="12,-698 12,-735 195,-735 195,-698 12,-698"/>
<polygon fill="none" stroke="#000000" points="12,-698 12,-735 195,-735 195,-698 12,-698"/>
<text text-anchor="start" x="23" y="-712.8" font-family="Helvetica Neue" font-size="14.00" fill="#333333">created_at (datetime)</text>
<polygon fill="#ffffff" stroke="transparent" points="12,-661 12,-698 195,-698 195,-661 12,-661"/>
<polygon fill="none" stroke="#000000" points="12,-661 12,-698 195,-698 195,-661 12,-661"/>
<text text-anchor="start" x="23" y="-675.8" font-family="Helvetica Neue" font-size="14.00" fill="#333333">updated_at (datetime)</text>
</g>
<!-- appfavorite -->
<g id="node9" class="node">
<title>appfavorite</title>
<polygon fill="none" stroke="#000000" points="194.5,-1177 11.5,-1177 11.5,-955 194.5,-955 194.5,-1177"/>
<polygon fill="#d3d3d3" stroke="transparent" points="12,-1140 12,-1177 195,-1177 195,-1140 12,-1140"/>
<polygon fill="none" stroke="#000000" points="12,-1140 12,-1177 195,-1177 195,-1140 12,-1140"/>
<text text-anchor="start" x="74.5" y="-1154.8" font-family="Helvetica Neue" font-size="14.00" fill="#333333">Favorite</text>
<polygon fill="#ffffff" stroke="transparent" points="12,-1103 12,-1140 195,-1140 195,-1103 12,-1103"/>
<polygon fill="none" stroke="#000000" points="12,-1103 12,-1140 195,-1140 195,-1103 12,-1103"/>
<text text-anchor="start" x="23" y="-1117.8" font-family="Helvetica Neue" font-size="14.00" fill="#333333">id (integer)</text>
<polygon fill="#ffffff" stroke="transparent" points="12,-1066 12,-1103 195,-1103 195,-1066 12,-1066"/>
<polygon fill="none" stroke="#000000" points="12,-1066 12,-1103 195,-1103 195,-1066 12,-1066"/>
<text text-anchor="start" x="23" y="-1080.8" font-family="Helvetica Neue" font-size="14.00" fill="#333333">created_at (datetime)</text>
<polygon fill="#ffffff" stroke="transparent" points="12,-1029 12,-1066 195,-1066 195,-1029 12,-1029"/>
<polygon fill="none" stroke="#000000" points="12,-1029 12,-1066 195,-1066 195,-1029 12,-1029"/>
<text text-anchor="start" x="23" y="-1043.8" font-family="Helvetica Neue" font-size="14.00" fill="#333333">updated_at (datetime)</text>
<polygon fill="#ffffff" stroke="transparent" points="12,-992 12,-1029 195,-1029 195,-992 12,-992"/>
<polygon fill="none" stroke="#000000" points="12,-992 12,-1029 195,-1029 195,-992 12,-992"/>
<text text-anchor="start" x="23" y="-1006.8" font-family="Helvetica Neue" font-size="14.00" fill="#333333">user_id (integer)</text>
<polygon fill="#ffffff" stroke="transparent" points="12,-955 12,-992 195,-992 195,-955 12,-955"/>
<polygon fill="none" stroke="#000000" points="12,-955 12,-992 195,-992 195,-955 12,-955"/>
<text text-anchor="start" x="23" y="-969.8" font-family="Helvetica Neue" font-size="14.00" fill="#333333">video_id (integer)</text>
</g>
<!-- apppurchase -->
<g id="node10" class="node">
<title>apppurchase</title>
<polygon fill="none" stroke="#000000" points="206,-1508.5 0,-1508.5 0,-1249.5 206,-1249.5 206,-1508.5"/>
<polygon fill="#d3d3d3" stroke="transparent" points="0,-1471 0,-1508 206,-1508 206,-1471 0,-1471"/>
<polygon fill="none" stroke="#000000" points="0,-1471 0,-1508 206,-1508 206,-1471 0,-1471"/>
<text text-anchor="start" x="70" y="-1485.8" font-family="Helvetica Neue" font-size="14.00" fill="#333333">Purchase</text>
<polygon fill="#ffffff" stroke="transparent" points="0,-1434 0,-1471 206,-1471 206,-1434 0,-1434"/>
<polygon fill="none" stroke="#000000" points="0,-1434 0,-1471 206,-1471 206,-1434 0,-1434"/>
<text text-anchor="start" x="11" y="-1448.8" font-family="Helvetica Neue" font-size="14.00" fill="#333333">id (bigint)</text>
<polygon fill="#ffffff" stroke="transparent" points="0,-1397 0,-1434 206,-1434 206,-1397 0,-1397"/>
<polygon fill="none" stroke="#000000" points="0,-1397 0,-1434 206,-1434 206,-1397 0,-1397"/>
<text text-anchor="start" x="11" y="-1411.8" font-family="Helvetica Neue" font-size="14.00" fill="#333333">user_id (integer)</text>
<polygon fill="#ffffff" stroke="transparent" points="0,-1360 0,-1397 206,-1397 206,-1360 0,-1360"/>
<polygon fill="none" stroke="#000000" points="0,-1360 0,-1397 206,-1397 206,-1360 0,-1360"/>
<text text-anchor="start" x="11" y="-1374.8" font-family="Helvetica Neue" font-size="14.00" fill="#333333">video_id (integer)</text>
<polygon fill="#ffffff" stroke="transparent" points="0,-1323 0,-1360 206,-1360 206,-1323 0,-1323"/>
<polygon fill="none" stroke="#000000" points="0,-1323 0,-1360 206,-1360 206,-1323 0,-1323"/>
<text text-anchor="start" x="11" y="-1337.8" font-family="Helvetica Neue" font-size="14.00" fill="#333333">download_count (integer)</text>
<polygon fill="#ffffff" stroke="transparent" points="0,-1286 0,-1323 206,-1323 206,-1286 0,-1286"/>
<polygon fill="none" stroke="#000000" points="0,-1286 0,-1323 206,-1323 206,-1286 0,-1286"/>
<text text-anchor="start" x="11" y="-1300.8" font-family="Helvetica Neue" font-size="14.00" fill="#333333">created_at (datetime)</text>
<polygon fill="#ffffff" stroke="transparent" points="0,-1249 0,-1286 206,-1286 206,-1249 0,-1249"/>
<polygon fill="none" stroke="#000000" points="0,-1249 0,-1286 206,-1286 206,-1249 0,-1249"/>
<text text-anchor="start" x="11" y="-1263.8" font-family="Helvetica Neue" font-size="14.00" fill="#333333">updated_at (datetime)</text>
</g>
</g>
</svg>
